# xmcd
#
# Track frame offsets:
#	150
#	8124
#	20899
#	34001
#	46089
#	59055
#	72378
#	81334
#	96135
#	107929
#
# Disc length: 1553 seconds
#
# Revision: 1
# Processed by: cddbd v1.5.1PL0 Copyright (c) Steve Scherf et al.
# Submitted via: audiograbber 1.83.01
#
DISCID=87060f0a
DTITLE=Various Artist - Kooky Kountry Disc 2 of 2
DYEAR=1900
DGENRE=
TTITLE0=Dang Me - Roger Miller
TTITLE1=Wolverton Mountain - Claude King
TTITLE2=Hot Rod Lincoln - Larry Groce
TTITLE3=Take This Job and Shove It - Johnny Paycheck
TTITLE4=Ode to the Little Brown Shack Out Back - Billy Edd Wheeler
TTITLE5=Sergeant Preston of the Yukon - Ray Stevens
TTITLE6=You Can't Roller Skate In a Buffalo Herd - Sonny Shroyer
TTITLE7=The Credi Card Song - Dick Feller
TTITLE8=Don't Squeeze My Sharmon - Charlie Walker
TTITLE9=If You Can't Bite, Don't Growl - Tommy Collins
EXTD=
EXTT0=
EXTT1=
EXTT2=
EXTT3=
EXTT4=
EXTT5=
EXTT6=
EXTT7=
EXTT8=
EXTT9=
PLAYORDER=
